<?xml version="1.0" encoding="utf-8"?>
<!-- Generator: Adobe Illustrator 24.0.2, SVG Export Plug-In . SVG Version: 6.00 Build 0)  -->
<svg version="1.1" id="图层_1" xmlns="http://www.w3.org/2000/svg" xmlns:xlink="http://www.w3.org/1999/xlink" x="0px" y="0px"
	 viewBox="0 0 200 200" style="enable-background:new 0 0 200 200;" xml:space="preserve">
<style type="text/css">
	.st0{fill:#FFFFFF;}
	.st1{display:none;fill:#D33333;enable-background:new    ;}
	.st2{font-family:'Consolas';}
	.st3{font-size:376.7562px;}
</style>
<polygon class="st0" points="129.8,107.8 130.3,91.9 145.7,92.2 145.1,108.1 "/>
<path class="st0" d="M100,0.8C45.3,0.8,0.8,45.3,0.8,100s44.5,99.2,99.2,99.2s99.2-44.5,99.2-99.2S154.7,0.8,100,0.8z M100,190.3
	L100,190.3v-1.4c-23.8,0-46.1-9.3-62.9-26.1s-26-39.1-26-62.9C11.1,50.9,51,11,100,11c49.1,0,88.9,39.9,88.9,88.9
	S149,188.8,100,188.8V190.3L100,190.3z"/>
<polygon class="st0" points="56.4,107.8 56.9,91.9 72.3,92.2 71.7,108.1 "/>
<path class="st0" d="M112.8,11.9c-4.8,2.9-8.9,6.2-12.1,10c-5,5.8-8.7,12.4-11.2,19.5c-2.5,7.2-4.1,14.8-4.7,22.9
	c-0.7,8.1-1,16.2-1,24.4c0,8.1,0,16.1,0,23.9s-0.5,15-1.7,21.6s-3.2,12.4-6.1,17.3c-2.9,5-7.3,8.7-13.3,11.2
	c-5.5,2.3-10.9,3.5-15.9,3.4c-2.4,0-4.7-0.4-7-1.1c13,12.1,29,19.9,46.2,22.6c4.7-2.9,8.8-6.2,12-9.9c5.1-5.9,9-12.4,11.6-19.7
	c2.6-7.2,4.3-14.9,5-23s1.1-16.3,1.1-24.4c0-8.2,0-16.1,0-23.9s0.6-15,1.8-21.6c1.2-6.6,3.3-12.4,6.2-17.4c3-5,7.4-8.8,13.4-11.3
	c9-3.8,17.8-3.5,26.2,0.8C149.9,24,132.4,14.8,112.8,11.9z M107.3,108.1L92,107.8l0.5-15.9l15.4,0.3L107.3,108.1z"/>
<polygon class="st0" points="19.7,107.8 20.3,91.9 35.6,92.2 35,108.1 "/>
<polygon class="st0" points="166.5,107.8 167,91.9 182.4,92.2 181.8,108.1 "/>
<text transform="matrix(0.3706 0.8807 -0.9217 0.3879 -46.0817 55.9751)" class="st1 st2 st3">S</text>
</svg>
