<?xml version="1.0" encoding="utf-8"?>
<!-- Generator: Adobe Illustrator 24.0.2, SVG Export Plug-In . SVG Version: 6.00 Build 0)  -->
<svg version="1.1" id="图层_1" xmlns="http://www.w3.org/2000/svg" xmlns:xlink="http://www.w3.org/1999/xlink" x="0px" y="0px"
	 viewBox="0 0 200 200" style="enable-background:new 0 0 200 200;" xml:space="preserve">
<style type="text/css">
	.st0{fill:#FFFFFF;}
</style>
<path class="st0" d="M100,0.8C45.3,0.8,0.8,45.3,0.8,100s44.5,99.2,99.2,99.2s99.2-44.5,99.2-99.2S154.7,0.8,100,0.8z M100,190.3
	C100,190.3,100,190.3,100,190.3l0-1.4c-23.8,0-46.1-9.3-62.9-26.1c-16.8-16.8-26-39.1-26-62.9c0-49,39.9-88.9,88.9-88.9
	c49.1,0,88.9,39.9,88.9,88.9c0,49-39.9,88.9-88.9,88.9L100,190.3C100,190.3,100,190.3,100,190.3z"/>
<path class="st0" d="M70.3,75c-1.3,0-2.6-0.6-3.3-1.7c-2.5-3.6-4-7.8-4.3-12.2c-0.6-13.8,10.1-25.5,23.9-26c6.4-0.3,12.6,1.9,17.4,6
	c5,4.3,8,10.4,8.4,17c0.3,4.3-0.5,8.7-2.4,12.6c-0.9,2-3.3,2.8-5.3,1.8c0,0,0,0-0.1,0c-2-1-2.7-3.4-1.8-5.4c1.3-2.6,1.9-5.6,1.7-8.5
	c-0.3-4.4-2.3-8.5-5.7-11.4c-7.1-6.1-17.8-5.4-24,1.7c-2.8,3.3-4.3,7.6-4.1,11.9c0.2,2.9,1.1,5.7,2.8,8.2c1.2,1.8,0.8,4.3-1,5.5
	C71.9,74.9,71.1,75.1,70.3,75z"/>
<path class="st0" d="M140.8,87.8h-0.3c-2.2,0-4.3,0.7-6.1,1.8c-1.5-4.8-6-8.1-11.1-8.2c-2.3,0-4.5,0.6-6.4,1.8
	c-1.4-4.9-5.9-8.3-11.1-8.3c-2,0-3.9,0.5-5.7,1.5v-12c0.1-6.5-5-11.9-11.5-12c-0.1,0-0.1,0-0.2,0c-6.7,0-12.1,5.3-12.1,12
	c0,0,0,0,0,0v46.7l-7.3-7.3c-5.2-4.7-13.3-4.3-18,0.9c-2,2.2-3.1,4.9-3.3,7.8c-0.2,3.3,1,6.6,3.3,9.1l33.8,33.6
	c0.7,0.7,1.5,1.3,2.3,1.8c6.2,5.1,13,8,28,8c34.1,0,37.3-18.4,37.3-41.1V100c0.3-6.4-4.7-11.9-11.1-12.1
	C141,87.9,140.9,87.9,140.8,87.8z M144.2,124.1c0,18.6,0,33.6-30,33.6c-12.6,0-20-2.8-25.9-8.5l-30.7-30.7c-2.3-2.2-2.5-5.8-0.3-8.2
	c0.1-0.1,0.2-0.2,0.3-0.3c2.4-2.2,6.1-2.2,8.5,0l10.8,10.7c1.4,1.4,3.6,1.3,4.9,0c0.6-0.6,1-1.5,1-2.4v-50c0-3,2.5-5.5,5.5-5.5
	c2.8,0,5,2.2,5,5c0,0.2,0,0.4,0,0.5v37.3c0,0.2,0,0.4,0,0.6c0.2,1.7,1.8,2.9,3.5,2.7c1.4-0.2,2.5-1.3,2.7-2.7V90
	c-0.3-2.9,1.9-5.6,4.8-5.8c2.9-0.3,5.6,1.9,5.8,4.8c0,0.3,0,0.7,0,1v20c0,0.2,0,0.4,0,0.6c0,1.7,1.4,3.1,3,3.1c0,0,0,0,0.1,0
	c1.7,0,3.1-1.4,3.1-3v0c0-0.2,0-0.4,0-0.6V96c-0.1-2.9,2.1-5.3,5-5.4c0.1,0,0.1,0,0.2,0c0,0,5.6,0.3,5.6,5.4v17.7c0,0.2,0,0.4,0,0.7
	c0,1.7,1.4,3,3.1,3c0.8,0,1.6-0.3,2.1-0.9c0.6-0.6,0.9-1.3,0.9-2.1c0-0.2,0-0.4,0-0.7v-12.1c-0.1-3,2.2-5.4,5.2-5.5
	c0.1,0,0.1,0,0.2,0c2.8-0.2,5.2,1.9,5.4,4.6c0,0.3,0,0.6,0,0.9L144.2,124.1L144.2,124.1z"/>
</svg>
